<svg width="528" height="221" viewBox="0 0 528 221" fill="none" xmlns="http://www.w3.org/2000/svg">
<rect x="407" y="60" width="70" height="70" rx="10" fill="url(#paint0_linear_51_2)"/>
<rect x="130" width="96" height="96" rx="10" fill="url(#paint1_linear_51_2)"/>
<path d="M1 179C10.698 160.776 38.6861 127.268 68.4241 146.568C160 206 180.644 33.9806 242.526 55.2934C304.408 76.6061 302.561 181.78 351.975 146.568C401.388 111.355 430.482 82.6293 461.423 120.158C486.176 150.181 519.919 112.127 527 90.0424" stroke="url(#paint2_linear_51_2)" stroke-width="2" stroke-linejoin="round"/>
<path d="M68.4241 147.115C38.6861 127.815 10.698 161.323 1 179.547V220.5H527V90.5897C519.919 112.675 486.176 150.729 461.423 120.706C430.482 83.1766 401.388 111.902 351.975 147.115C302.561 182.327 304.408 77.1534 242.526 55.8406C180.644 34.5279 160 206.547 68.4241 147.115Z" fill="url(#paint3_linear_51_2)" fill-opacity="0.5"/>
<path d="M454.273 111.286H445.842C447.258 110.027 448.594 108.682 449.841 107.257C454.52 101.901 457 96.2554 457 90.9286C457 86.9693 455.42 83.1721 452.607 80.3725C449.794 77.5728 445.978 76 442 76C438.022 76 434.206 77.5728 431.393 80.3725C428.58 83.1721 427 86.9693 427 90.9286C427 96.2554 429.473 101.901 434.159 107.257C435.406 108.682 436.742 110.027 438.158 111.286H429.727C429.366 111.286 429.019 111.429 428.763 111.683C428.507 111.938 428.364 112.283 428.364 112.643C428.364 113.003 428.507 113.348 428.763 113.603C429.019 113.857 429.366 114 429.727 114H454.273C454.634 114 454.981 113.857 455.237 113.603C455.493 113.348 455.636 113.003 455.636 112.643C455.636 112.283 455.493 111.938 455.237 111.683C454.981 111.429 454.634 111.286 454.273 111.286ZM429.727 90.9286C429.727 87.6891 431.02 84.5824 433.322 82.2918C435.623 80.0011 438.745 78.7143 442 78.7143C445.255 78.7143 448.377 80.0011 450.678 82.2918C452.98 84.5824 454.273 87.6891 454.273 90.9286C454.273 100.637 444.818 108.741 442 110.946C439.182 108.741 429.727 100.637 429.727 90.9286ZM448.818 90.9286C448.818 89.5865 448.418 88.2745 447.669 87.1586C446.92 86.0427 445.855 85.173 444.609 84.6594C443.363 84.1458 441.992 84.0114 440.67 84.2732C439.347 84.5351 438.132 85.1813 437.179 86.1303C436.225 87.0793 435.576 88.2884 435.313 89.6047C435.05 90.921 435.185 92.2854 435.701 93.5254C436.217 94.7653 437.091 95.8251 438.212 96.5707C439.333 97.3163 440.651 97.7143 442 97.7143C443.808 97.7143 445.543 96.9994 446.821 95.7268C448.1 94.4542 448.818 92.7283 448.818 90.9286ZM437.909 90.9286C437.909 90.1233 438.149 89.3361 438.599 88.6666C439.048 87.9971 439.687 87.4752 440.434 87.1671C441.182 86.8589 442.005 86.7783 442.798 86.9354C443.592 87.0925 444.321 87.4802 444.893 88.0496C445.465 88.619 445.854 89.3445 446.012 90.1343C446.17 90.9241 446.089 91.7427 445.78 92.4866C445.47 93.2306 444.946 93.8665 444.273 94.3138C443.6 94.7612 442.809 95 442 95C440.915 95 439.874 94.571 439.107 93.8075C438.34 93.044 437.909 92.0084 437.909 90.9286Z" fill="white"/>
<path d="M195.5 28.5385H190.25V26.7692C190.25 26.3 190.066 25.85 189.737 25.5182C189.409 25.1864 188.964 25 188.5 25C188.036 25 187.591 25.1864 187.263 25.5182C186.934 25.85 186.75 26.3 186.75 26.7692V28.5385H169.25V26.7692C169.25 26.3 169.066 25.85 168.737 25.5182C168.409 25.1864 167.964 25 167.5 25C167.036 25 166.591 25.1864 166.263 25.5182C165.934 25.85 165.75 26.3 165.75 26.7692V28.5385H160.5C159.572 28.5385 158.682 28.9113 158.025 29.5749C157.369 30.2384 157 31.1385 157 32.0769V67.4615C157 68.4 157.369 69.3 158.025 69.9636C158.682 70.6272 159.572 71 160.5 71H195.5C196.428 71 197.318 70.6272 197.975 69.9636C198.631 69.3 199 68.4 199 67.4615V32.0769C199 31.1385 198.631 30.2384 197.975 29.5749C197.318 28.9113 196.428 28.5385 195.5 28.5385ZM165.75 32.0769V33.8462C165.75 34.3154 165.934 34.7654 166.263 35.0972C166.591 35.429 167.036 35.6154 167.5 35.6154C167.964 35.6154 168.409 35.429 168.737 35.0972C169.066 34.7654 169.25 34.3154 169.25 33.8462V32.0769H186.75V33.8462C186.75 34.3154 186.934 34.7654 187.263 35.0972C187.591 35.429 188.036 35.6154 188.5 35.6154C188.964 35.6154 189.409 35.429 189.737 35.0972C190.066 34.7654 190.25 34.3154 190.25 33.8462V32.0769H195.5V39.1538H160.5V32.0769H165.75ZM195.5 67.4615H160.5V42.6923H195.5V67.4615ZM174.5 48V62.1538C174.5 62.6231 174.316 63.0731 173.987 63.4049C173.659 63.7367 173.214 63.9231 172.75 63.9231C172.286 63.9231 171.841 63.7367 171.513 63.4049C171.184 63.0731 171 62.6231 171 62.1538V50.8617L170.033 51.3527C169.618 51.5627 169.137 51.5972 168.696 51.4487C168.256 51.3003 167.891 50.9809 167.684 50.561C167.476 50.141 167.442 49.6548 167.589 49.2094C167.736 48.764 168.051 48.3957 168.467 48.1858L171.967 46.4165C172.234 46.2815 172.53 46.2177 172.829 46.2313C173.127 46.2448 173.416 46.3352 173.67 46.4939C173.924 46.6526 174.134 46.8743 174.279 47.1379C174.424 47.4015 174.5 47.6983 174.5 48ZM187.441 54.7341L183.25 60.3846H186.75C187.214 60.3846 187.659 60.571 187.987 60.9028C188.316 61.2346 188.5 61.6846 188.5 62.1538C188.5 62.6231 188.316 63.0731 187.987 63.4049C187.659 63.7367 187.214 63.9231 186.75 63.9231H179.75C179.425 63.9231 179.106 63.8316 178.83 63.6588C178.554 63.4861 178.33 63.2389 178.185 62.9451C178.039 62.6512 177.978 62.3222 178.007 61.995C178.036 61.6677 178.155 61.3552 178.35 61.0923L184.646 52.6066C184.789 52.4139 184.892 52.1936 184.948 51.9593C185.003 51.725 185.011 51.4816 184.971 51.244C184.931 51.0065 184.843 50.7798 184.712 50.5778C184.582 50.3759 184.413 50.203 184.214 50.0697C184.015 49.9365 183.792 49.8457 183.557 49.8029C183.322 49.7601 183.082 49.7663 182.849 49.821C182.617 49.8757 182.398 49.9778 182.207 50.121C182.015 50.2642 181.854 50.4455 181.734 50.6538C181.623 50.8615 181.471 51.0444 181.288 51.1919C181.106 51.3393 180.896 51.4483 180.671 51.5124C180.446 51.5765 180.211 51.5944 179.979 51.5651C179.747 51.5358 179.523 51.4598 179.321 51.3416C179.119 51.2234 178.942 51.0655 178.801 50.8771C178.66 50.6887 178.557 50.4736 178.5 50.2446C178.442 50.0156 178.431 49.7773 178.466 49.5437C178.501 49.3101 178.582 49.086 178.704 48.8846C179.282 47.8733 180.174 47.0829 181.242 46.6361C182.309 46.1894 183.493 46.1111 184.609 46.4134C185.725 46.7158 186.711 47.3819 187.415 48.3085C188.118 49.2351 188.5 50.3704 188.5 51.5385C188.504 52.6923 188.132 53.8153 187.441 54.7341Z" fill="white"/>
<defs>
<linearGradient id="paint0_linear_51_2" x1="442" y1="60" x2="442" y2="130" gradientUnits="userSpaceOnUse">
<stop stop-color="#58ABFE"/>
<stop offset="1" stop-color="#0171E2"/>
</linearGradient>
<linearGradient id="paint1_linear_51_2" x1="178" y1="0" x2="178" y2="96" gradientUnits="userSpaceOnUse">
<stop stop-color="#58ABFE"/>
<stop offset="1" stop-color="#0171E2"/>
</linearGradient>
<linearGradient id="paint2_linear_51_2" x1="264" y1="59.5" x2="264" y2="190" gradientUnits="userSpaceOnUse">
<stop stop-color="#0171E2"/>
<stop offset="1" stop-color="#0171E2" stop-opacity="0"/>
</linearGradient>
<linearGradient id="paint3_linear_51_2" x1="264" y1="54" x2="270" y2="216" gradientUnits="userSpaceOnUse">
<stop stop-color="#0171E2"/>
<stop offset="1" stop-color="#0171E2" stop-opacity="0"/>
</linearGradient>
</defs>
</svg>
