<svg width="154" height="58" viewBox="0 0 154 58" fill="none" xmlns="http://www.w3.org/2000/svg">
<path d="M152.233 54.8438C152.233 54.6146 152.176 54.388 152.062 54.1641C151.947 53.9401 151.726 53.7344 151.397 53.5469C151.075 53.3594 150.598 53.2005 149.968 53.0703C149.499 52.9661 149.08 52.849 148.71 52.7188C148.345 52.5885 148.038 52.4323 147.788 52.25C147.538 52.0677 147.348 51.849 147.218 51.5938C147.088 51.3385 147.022 51.0365 147.022 50.6875C147.022 50.375 147.09 50.0807 147.226 49.8047C147.366 49.5234 147.564 49.2786 147.819 49.0703C148.08 48.8568 148.392 48.6901 148.757 48.5703C149.127 48.4505 149.541 48.3906 149.999 48.3906C150.65 48.3906 151.207 48.5026 151.671 48.7266C152.14 48.9453 152.496 49.2448 152.741 49.625C152.991 50.0052 153.116 50.4349 153.116 50.9141H152.187C152.187 50.6224 152.101 50.3464 151.929 50.0859C151.762 49.8255 151.515 49.612 151.187 49.4453C150.864 49.2786 150.468 49.1953 149.999 49.1953C149.515 49.1953 149.121 49.2682 148.819 49.4141C148.517 49.5599 148.296 49.7448 148.155 49.9688C148.02 50.1927 147.952 50.4245 147.952 50.6641C147.952 50.8516 147.981 51.0234 148.038 51.1797C148.101 51.3307 148.21 51.4714 148.366 51.6016C148.528 51.7318 148.757 51.8542 149.054 51.9688C149.351 52.0833 149.736 52.1953 150.21 52.3047C150.892 52.4557 151.45 52.6406 151.882 52.8594C152.319 53.0729 152.642 53.3385 152.851 53.6562C153.059 53.9688 153.163 54.349 153.163 54.7969C153.163 55.1458 153.09 55.4661 152.944 55.7578C152.799 56.0443 152.588 56.2917 152.312 56.5C152.041 56.7083 151.713 56.8698 151.327 56.9844C150.947 57.099 150.52 57.1562 150.046 57.1562C149.332 57.1562 148.728 57.0391 148.233 56.8047C147.744 56.5651 147.371 56.2526 147.116 55.8672C146.866 55.4766 146.741 55.0625 146.741 54.625H147.671C147.702 55.0625 147.84 55.4089 148.085 55.6641C148.33 55.9141 148.629 56.0911 148.983 56.1953C149.343 56.2995 149.697 56.3516 150.046 56.3516C150.525 56.3516 150.926 56.2812 151.249 56.1406C151.572 56 151.817 55.8151 151.983 55.5859C152.15 55.3568 152.233 55.1094 152.233 54.8438Z" fill="black"/>
<path d="M138.184 50.3516V57H137.254V48.5469H138.145L138.184 50.3516ZM137.973 52.25L137.559 52.0156C137.59 51.5156 137.692 51.0469 137.863 50.6094C138.035 50.1719 138.267 49.7865 138.559 49.4531C138.856 49.1198 139.202 48.8594 139.598 48.6719C139.999 48.4844 140.442 48.3906 140.926 48.3906C141.348 48.3906 141.725 48.4479 142.059 48.5625C142.392 48.6771 142.676 48.8594 142.91 49.1094C143.145 49.3594 143.322 49.6797 143.442 50.0703C143.567 50.4609 143.629 50.9375 143.629 51.5V57H142.692V51.4922C142.692 50.9089 142.611 50.4531 142.449 50.125C142.288 49.7917 142.059 49.5547 141.762 49.4141C141.465 49.2734 141.113 49.2031 140.707 49.2031C140.259 49.2031 139.866 49.3021 139.527 49.5C139.194 49.6927 138.913 49.9453 138.684 50.2578C138.46 50.5651 138.288 50.8958 138.168 51.25C138.048 51.599 137.983 51.9323 137.973 52.25Z" fill="black"/>
<path d="M126.65 52.9062V52.6484C126.65 52.0339 126.738 51.4661 126.915 50.9453C127.092 50.4245 127.345 49.974 127.673 49.5938C128.006 49.2135 128.405 48.9193 128.868 48.7109C129.332 48.4974 129.848 48.3906 130.415 48.3906C130.988 48.3906 131.506 48.4974 131.97 48.7109C132.434 48.9193 132.832 49.2135 133.165 49.5938C133.499 49.974 133.754 50.4245 133.931 50.9453C134.108 51.4661 134.197 52.0339 134.197 52.6484V52.9062C134.197 53.5208 134.108 54.0885 133.931 54.6094C133.754 55.125 133.499 55.5729 133.165 55.9531C132.837 56.3333 132.441 56.6302 131.978 56.8438C131.514 57.0521 130.999 57.1562 130.431 57.1562C129.858 57.1562 129.34 57.0521 128.876 56.8438C128.413 56.6302 128.014 56.3333 127.681 55.9531C127.348 55.5729 127.092 55.125 126.915 54.6094C126.738 54.0885 126.65 53.5208 126.65 52.9062ZM127.579 52.6484V52.9062C127.579 53.3698 127.642 53.8099 127.767 54.2266C127.892 54.638 128.074 55.0052 128.314 55.3281C128.553 55.6458 128.85 55.8958 129.204 56.0781C129.559 56.2604 129.967 56.3516 130.431 56.3516C130.889 56.3516 131.293 56.2604 131.642 56.0781C131.996 55.8958 132.293 55.6458 132.533 55.3281C132.772 55.0052 132.952 54.638 133.072 54.2266C133.197 53.8099 133.259 53.3698 133.259 52.9062V52.6484C133.259 52.1901 133.197 51.7552 133.072 51.3438C132.952 50.9323 132.769 50.5651 132.525 50.2422C132.285 49.9193 131.988 49.6641 131.634 49.4766C131.28 49.2891 130.874 49.1953 130.415 49.1953C129.957 49.1953 129.551 49.2891 129.197 49.4766C128.848 49.6641 128.551 49.9193 128.306 50.2422C128.066 50.5651 127.884 50.9323 127.759 51.3438C127.639 51.7552 127.579 52.1901 127.579 52.6484Z" fill="black"/>
<path d="M123.491 48.5469V57H122.561V48.5469H123.491ZM122.397 46.1016C122.397 45.9245 122.452 45.776 122.561 45.6562C122.676 45.5312 122.832 45.4688 123.03 45.4688C123.228 45.4688 123.384 45.5312 123.498 45.6562C123.618 45.776 123.678 45.9245 123.678 46.1016C123.678 46.2734 123.618 46.4219 123.498 46.5469C123.384 46.6667 123.228 46.7266 123.03 46.7266C122.832 46.7266 122.676 46.6667 122.561 46.5469C122.452 46.4219 122.397 46.2734 122.397 46.1016Z" fill="black"/>
<path d="M119.371 48.5469V49.3125H115.136V48.5469H119.371ZM116.691 46.375H117.621V54.9453C117.621 55.3359 117.673 55.6302 117.777 55.8281C117.881 56.026 118.016 56.1589 118.183 56.2266C118.35 56.2943 118.529 56.3281 118.722 56.3281C118.863 56.3281 118.998 56.3203 119.128 56.3047C119.259 56.2839 119.376 56.263 119.48 56.2422L119.519 57.0312C119.404 57.0677 119.256 57.0964 119.074 57.1172C118.891 57.1432 118.709 57.1562 118.527 57.1562C118.167 57.1562 117.85 57.0911 117.574 56.9609C117.298 56.8255 117.082 56.5964 116.925 56.2734C116.769 55.9453 116.691 55.5 116.691 54.9375V46.375Z" fill="black"/>
<path d="M111.672 55.0469V48.5469H112.61V57H111.712L111.672 55.0469ZM111.844 53.4844L112.329 53.4688C112.329 54 112.266 54.4896 112.141 54.9375C112.016 55.3854 111.821 55.776 111.555 56.1094C111.29 56.4427 110.946 56.7005 110.524 56.8828C110.102 57.0651 109.594 57.1562 109.001 57.1562C108.589 57.1562 108.212 57.099 107.868 56.9844C107.529 56.8646 107.238 56.6771 106.993 56.4219C106.748 56.1667 106.558 55.8359 106.422 55.4297C106.292 55.0234 106.227 54.5312 106.227 53.9531V48.5469H107.157V53.9688C107.157 54.4219 107.206 54.7995 107.305 55.1016C107.409 55.4036 107.55 55.6458 107.727 55.8281C107.909 56.0104 108.118 56.1406 108.352 56.2188C108.587 56.2969 108.839 56.3359 109.11 56.3359C109.797 56.3359 110.339 56.2031 110.735 55.9375C111.136 55.6719 111.42 55.3229 111.587 54.8906C111.758 54.4531 111.844 53.9844 111.844 53.4844Z" fill="black"/>
<path d="M102.584 45V57H101.654V45H102.584Z" fill="black"/>
<path d="M90.9403 52.9062V52.6484C90.9403 52.0339 91.0288 51.4661 91.2059 50.9453C91.383 50.4245 91.6356 49.974 91.9637 49.5938C92.2971 49.2135 92.6955 48.9193 93.1591 48.7109C93.6226 48.4974 94.1382 48.3906 94.7059 48.3906C95.2788 48.3906 95.7971 48.4974 96.2606 48.7109C96.7242 48.9193 97.1226 49.2135 97.4559 49.5938C97.7893 49.974 98.0445 50.4245 98.2216 50.9453C98.3986 51.4661 98.4872 52.0339 98.4872 52.6484V52.9062C98.4872 53.5208 98.3986 54.0885 98.2216 54.6094C98.0445 55.125 97.7893 55.5729 97.4559 55.9531C97.1278 56.3333 96.732 56.6302 96.2684 56.8438C95.8049 57.0521 95.2893 57.1562 94.7216 57.1562C94.1486 57.1562 93.6304 57.0521 93.1669 56.8438C92.7033 56.6302 92.3049 56.3333 91.9716 55.9531C91.6382 55.5729 91.383 55.125 91.2059 54.6094C91.0288 54.0885 90.9403 53.5208 90.9403 52.9062ZM91.87 52.6484V52.9062C91.87 53.3698 91.9325 53.8099 92.0575 54.2266C92.1825 54.638 92.3648 55.0052 92.6044 55.3281C92.844 55.6458 93.1408 55.8958 93.495 56.0781C93.8492 56.2604 94.258 56.3516 94.7216 56.3516C95.1799 56.3516 95.5835 56.2604 95.9325 56.0781C96.2867 55.8958 96.5835 55.6458 96.8231 55.3281C97.0627 55.0052 97.2424 54.638 97.3622 54.2266C97.4872 53.8099 97.5497 53.3698 97.5497 52.9062V52.6484C97.5497 52.1901 97.4872 51.7552 97.3622 51.3438C97.2424 50.9323 97.0601 50.5651 96.8153 50.2422C96.5757 49.9193 96.2788 49.6641 95.9247 49.4766C95.5705 49.2891 95.1643 49.1953 94.7059 49.1953C94.2476 49.1953 93.8413 49.2891 93.4872 49.4766C93.1382 49.6641 92.8413 49.9193 92.5966 50.2422C92.357 50.5651 92.1747 50.9323 92.0497 51.3438C91.9299 51.7552 91.87 52.1901 91.87 52.6484Z" fill="black"/>
<path d="M87.2891 54.8438C87.2891 54.6146 87.2318 54.388 87.1172 54.1641C87.0026 53.9401 86.7812 53.7344 86.4531 53.5469C86.1302 53.3594 85.6536 53.2005 85.0234 53.0703C84.5547 52.9661 84.1354 52.849 83.7656 52.7188C83.401 52.5885 83.0938 52.4323 82.8438 52.25C82.5938 52.0677 82.4036 51.849 82.2734 51.5938C82.1432 51.3385 82.0781 51.0365 82.0781 50.6875C82.0781 50.375 82.1458 50.0807 82.2812 49.8047C82.4219 49.5234 82.6198 49.2786 82.875 49.0703C83.1354 48.8568 83.4479 48.6901 83.8125 48.5703C84.1823 48.4505 84.5964 48.3906 85.0547 48.3906C85.7057 48.3906 86.263 48.5026 86.7266 48.7266C87.1953 48.9453 87.5521 49.2448 87.7969 49.625C88.0469 50.0052 88.1719 50.4349 88.1719 50.9141H87.2422C87.2422 50.6224 87.1562 50.3464 86.9844 50.0859C86.8177 49.8255 86.5703 49.612 86.2422 49.4453C85.9193 49.2786 85.5234 49.1953 85.0547 49.1953C84.5703 49.1953 84.1771 49.2682 83.875 49.4141C83.5729 49.5599 83.3516 49.7448 83.2109 49.9688C83.0755 50.1927 83.0078 50.4245 83.0078 50.6641C83.0078 50.8516 83.0365 51.0234 83.0938 51.1797C83.1562 51.3307 83.2656 51.4714 83.4219 51.6016C83.5833 51.7318 83.8125 51.8542 84.1094 51.9688C84.4062 52.0833 84.7917 52.1953 85.2656 52.3047C85.9479 52.4557 86.5052 52.6406 86.9375 52.8594C87.375 53.0729 87.6979 53.3385 87.9062 53.6562C88.1146 53.9688 88.2188 54.349 88.2188 54.7969C88.2188 55.1458 88.1458 55.4661 88 55.7578C87.8542 56.0443 87.6432 56.2917 87.3672 56.5C87.0964 56.7083 86.7682 56.8698 86.3828 56.9844C86.0026 57.099 85.5755 57.1562 85.1016 57.1562C84.388 57.1562 83.7839 57.0391 83.2891 56.8047C82.7995 56.5651 82.4271 56.2526 82.1719 55.8672C81.9219 55.4766 81.7969 55.0625 81.7969 54.625H82.7266C82.7578 55.0625 82.8958 55.4089 83.1406 55.6641C83.3854 55.9141 83.6849 56.0911 84.0391 56.1953C84.3984 56.2995 84.7526 56.3516 85.1016 56.3516C85.5807 56.3516 85.9818 56.2812 86.3047 56.1406C86.6276 56 86.8724 55.8151 87.0391 55.5859C87.2057 55.3568 87.2891 55.1094 87.2891 54.8438Z" fill="black"/>
<path d="M136.38 36H129.981V10.8984H131.528L133.638 13.3359C134.669 12.3984 135.833 11.6797 137.13 11.1797C138.442 10.6641 139.809 10.4062 141.231 10.4062C142.763 10.4062 144.208 10.7031 145.567 11.2969C146.927 11.875 148.114 12.6797 149.13 13.7109C150.145 14.7266 150.942 15.9219 151.52 17.2969C152.114 18.6562 152.411 20.1094 152.411 21.6562V36H146.013V21.6562C146.013 21 145.888 20.3828 145.638 19.8047C145.388 19.2109 145.044 18.6953 144.606 18.2578C144.169 17.8203 143.661 17.4766 143.083 17.2266C142.505 16.9766 141.888 16.8516 141.231 16.8516C140.559 16.8516 139.927 16.9766 139.333 17.2266C138.739 17.4766 138.223 17.8203 137.786 18.2578C137.348 18.6953 137.005 19.2109 136.755 19.8047C136.505 20.3828 136.38 21 136.38 21.6562V36Z" fill="black"/>
<path d="M124.787 33.0703C124.271 33.5391 123.716 33.9844 123.122 34.4062C122.544 34.8125 121.935 35.1719 121.294 35.4844C120.654 35.7812 119.99 36.0156 119.302 36.1875C118.63 36.375 117.943 36.4688 117.24 36.4688C115.693 36.4688 114.24 36.1953 112.88 35.6484C111.521 35.1016 110.326 34.3281 109.294 33.3281C108.279 32.3125 107.474 31.0859 106.88 29.6484C106.302 28.1953 106.013 26.5703 106.013 24.7734V10.8984H112.388V24.7734C112.388 25.6172 112.513 26.375 112.763 27.0469C113.029 27.7031 113.38 28.2578 113.818 28.7109C114.255 29.1641 114.763 29.5078 115.341 29.7422C115.935 29.9766 116.568 30.0938 117.24 30.0938C117.896 30.0938 118.513 29.9453 119.091 29.6484C119.685 29.3359 120.201 28.9297 120.638 28.4297C121.076 27.9297 121.419 27.3672 121.669 26.7422C121.919 26.1016 122.044 25.4453 122.044 24.7734V10.8984H128.443V36H126.896L124.787 33.0703Z" fill="black"/>
<path d="M89.2872 36H82.8887V0.914062H89.2872V12C90.0528 11.4219 90.8419 11.0156 91.6544 10.7812C92.4669 10.5312 93.295 10.4062 94.1387 10.4062C95.6856 10.4062 97.1387 10.7031 98.4981 11.2969C99.8575 11.875 101.037 12.6797 102.037 13.7109C103.053 14.7266 103.85 15.9219 104.428 17.2969C105.022 18.6562 105.318 20.1094 105.318 21.6562V36H98.8731V21.6562H98.92C98.92 21 98.795 20.3828 98.545 19.8047C98.295 19.2109 97.9512 18.6953 97.5137 18.2578C97.0762 17.8203 96.5684 17.4766 95.9903 17.2266C95.4122 16.9766 94.795 16.8516 94.1387 16.8516C93.4669 16.8516 92.834 16.9766 92.2403 17.2266C91.6465 17.4766 91.1309 17.8203 90.6934 18.2578C90.2559 18.6953 89.9122 19.2109 89.6622 19.8047C89.4122 20.3828 89.2872 21 89.2872 21.6562V36Z" fill="black"/>
<path d="M65.6472 36H59.2487V10.8984H60.7956L62.905 13.3359C63.9362 12.3984 65.1003 11.6797 66.3972 11.1797C67.7097 10.6641 69.0769 10.4062 70.4987 10.4062C72.03 10.4062 73.4753 10.7031 74.8347 11.2969C76.1941 11.875 77.3816 12.6797 78.3972 13.7109C79.4128 14.7266 80.2097 15.9219 80.7878 17.2969C81.3816 18.6562 81.6784 20.1094 81.6784 21.6562V36H75.28V21.6562C75.28 21 75.155 20.3828 74.905 19.8047C74.655 19.2109 74.3112 18.6953 73.8737 18.2578C73.4362 17.8203 72.9284 17.4766 72.3503 17.2266C71.7722 16.9766 71.155 16.8516 70.4987 16.8516C69.8269 16.8516 69.1941 16.9766 68.6003 17.2266C68.0066 17.4766 67.4909 17.8203 67.0534 18.2578C66.6159 18.6953 66.2722 19.2109 66.0222 19.8047C65.7722 20.3828 65.6472 21 65.6472 21.6562V36Z" fill="black"/>
<path d="M57.7103 36H56.1635L53.6791 32.5547C53.0697 33.1016 52.4213 33.6172 51.7338 34.1016C51.0619 34.5703 50.351 34.9844 49.601 35.3438C48.851 35.6875 48.0775 35.9609 47.2806 36.1641C46.4994 36.3672 45.7025 36.4688 44.89 36.4688C43.1244 36.4688 41.4603 36.1719 39.8978 35.5781C38.351 34.9844 36.9916 34.125 35.8197 33C34.6635 31.8594 33.7494 30.4688 33.0775 28.8281C32.4056 27.1875 32.0697 25.3203 32.0697 23.2266C32.0697 21.2734 32.4056 19.4844 33.0775 17.8594C33.7494 16.2188 34.6635 14.8125 35.8197 13.6406C36.9916 12.4688 38.351 11.5625 39.8978 10.9219C41.4603 10.2656 43.1244 9.9375 44.89 9.9375C45.7025 9.9375 46.5072 10.0391 47.3041 10.2422C48.101 10.4453 48.8744 10.7266 49.6244 11.0859C50.3744 11.4453 51.0853 11.8672 51.7572 12.3516C52.4447 12.8359 53.0853 13.3594 53.6791 13.9219L56.1635 10.9453H57.7103V36ZM51.265 23.2266C51.265 22.3516 51.0931 21.5078 50.7494 20.6953C50.4213 19.8672 49.9681 19.1406 49.39 18.5156C48.8119 17.875 48.1322 17.3672 47.351 16.9922C46.5853 16.6016 45.765 16.4062 44.89 16.4062C44.015 16.4062 43.1869 16.5547 42.4056 16.8516C41.64 17.1484 40.9681 17.5859 40.39 18.1641C39.8275 18.7422 39.3822 19.4609 39.0541 20.3203C38.726 21.1641 38.5619 22.1328 38.5619 23.2266C38.5619 24.3203 38.726 25.2969 39.0541 26.1562C39.3822 27 39.8275 27.7109 40.39 28.2891C40.9681 28.8672 41.64 29.3047 42.4056 29.6016C43.1869 29.8984 44.015 30.0469 44.89 30.0469C45.765 30.0469 46.5853 29.8594 47.351 29.4844C48.1322 29.0938 48.8119 28.5859 49.39 27.9609C49.9681 27.3203 50.4213 26.5938 50.7494 25.7812C51.0931 24.9531 51.265 24.1016 51.265 23.2266Z" fill="black"/>
<path d="M32.125 26.9297C32.125 28.2422 31.875 29.4844 31.375 30.6562C30.875 31.8125 30.1875 32.8203 29.3125 33.6797C28.4531 34.5391 27.4375 35.2188 26.2656 35.7188C25.1094 36.2188 23.8672 36.4688 22.5391 36.4688C21.3516 36.4688 20.2109 36.2656 19.1172 35.8594C18.0234 35.4375 17.0312 34.8281 16.1406 34.0312C15.2656 34.8281 14.2812 35.4375 13.1875 35.8594C12.1094 36.2656 10.9688 36.4688 9.76562 36.4688C8.4375 36.4688 7.19531 36.2188 6.03906 35.7188C4.88281 35.2188 3.86719 34.5391 2.99219 33.6797C2.13281 32.8203 1.45312 31.8125 0.953125 30.6562C0.453125 29.4844 0.203125 28.2422 0.203125 26.9297V10.9453H6.60156V26.9297C6.60156 27.3672 6.67969 27.7812 6.83594 28.1719C7.00781 28.5469 7.23438 28.8828 7.51562 29.1797C7.8125 29.4609 8.14844 29.6875 8.52344 29.8594C8.91406 30.0156 9.32812 30.0938 9.76562 30.0938C10.2031 30.0938 10.6172 30.0156 11.0078 29.8594C11.3984 29.6875 11.7422 29.4609 12.0391 29.1797C12.3359 28.8828 12.5625 28.5469 12.7188 28.1719C12.8906 27.7812 12.9766 27.3672 12.9766 26.9297V10.9453H19.3516V26.9297C19.3516 27.3672 19.4375 27.7812 19.6094 28.1719C19.7812 28.5469 20.0078 28.8828 20.2891 29.1797C20.5859 29.4609 20.9219 29.6875 21.2969 29.8594C21.6875 30.0156 22.1016 30.0938 22.5391 30.0938C22.9766 30.0938 23.3906 30.0156 23.7812 29.8594C24.1719 29.6875 24.5078 29.4609 24.7891 29.1797C25.0859 28.8828 25.3203 28.5469 25.4922 28.1719C25.6641 27.7812 25.75 27.3672 25.75 26.9297V10.9453H32.125V26.9297Z" fill="black"/>
</svg>
